<?xml version="1.0" encoding="iso-8859-1"?>
<!-- Generator: Adobe Illustrator 19.0.0, SVG Export Plug-In . SVG Version: 6.00 Build 0)  -->
<svg version="1.1" id="Layer_1" xmlns="http://www.w3.org/2000/svg" xmlns:xlink="http://www.w3.org/1999/xlink" x="0px" y="0px"
	 viewBox="0 0 512.001 512.001" style="enable-background:new 0 0 512.001 512.001;" xml:space="preserve">
<rect x="128.409" y="250.708" transform="matrix(-0.9491 -0.3149 0.3149 -0.9491 478.4605 780.189)" style="fill:#1685CF;" width="347.693" height="201.47"/>
<path style="fill:#FFFFFF;" d="M156.041,370.84c9.135-27.538,44.389-40.624,78.741-29.228
	c34.352,11.396,54.793,42.958,45.658,70.497L156.041,370.84z"/>
<rect x="84.093" y="155.456" style="fill:#45B5F5;" width="347.701" height="201.475"/>
<path style="fill:#FFFFFF;" d="M125.258,320.643c0-29.014,29.34-52.535,65.533-52.535s65.533,23.52,65.533,52.535H125.258z"/>
<rect x="29.118" y="41.748" transform="matrix(-0.9814 0.1922 -0.1922 -0.9814 429.5193 243.2916)" style="fill:#9CDCFF;" width="347.682" height="201.464"/>
<path style="fill:#FFFFFF;" d="M85.146,231.233c-5.578-28.473,18.694-57.195,54.212-64.153s68.832,10.484,74.409,38.957
	L85.146,231.233z"/>
<circle style="fill:#FFE049;" cx="128.827" cy="116.159" r="24.914"/>
<g>
	<path style="fill:#3B404F;" d="M502.215,300.896l-60.215-19.976V155.456c0-5.633-4.566-10.199-10.199-10.199h-40.735L364.225,8.239
		c-0.52-2.655-2.073-4.994-4.317-6.503c-2.245-1.509-4.999-2.066-7.651-1.545L11.037,67.031c-5.528,1.083-9.131,6.442-8.048,11.97
		l38.73,197.716c0.52,2.655,2.073,4.994,4.317,6.503c1.695,1.139,3.679,1.736,5.691,1.736c0.654,0,1.311-0.063,1.96-0.191
		l20.209-3.958v76.123c0,5.633,4.566,10.199,10.199,10.199h19.063l-7.292,21.981c-0.852,2.568-0.649,5.368,0.564,7.786
		c1.213,2.418,3.337,4.254,5.905,5.106l330.018,109.48c1.045,0.347,2.13,0.519,3.211,0.519c1.574,0,3.141-0.364,4.574-1.083
		c2.418-1.213,4.254-3.337,5.106-5.905l63.437-191.225C510.458,308.441,507.561,302.67,502.215,300.896z M24.967,85.089
		l321.2-62.919l34.809,177.698l-321.2,62.919L24.967,85.089z M190.248,302.137c5.633,0,10.199-4.566,10.199-10.199v-12.983
		c21.547,2.914,38.831,15.398,44.053,31.488H137.08c5.133-15.819,21.929-28.145,42.969-31.326v12.82
		C180.049,297.571,184.616,302.137,190.248,302.137z M94.295,276.81l62.688-12.28c-24.831,10.307-41.925,31.581-41.925,56.112
		c0,5.633,4.566,10.199,10.199,10.199h131.066c5.633,0,10.199-4.566,10.199-10.199c0-34.592-33.974-62.733-75.732-62.733
		c-0.001,0-0.002,0-0.003,0l105.994-20.762h96.415c5.633,0,10.199-4.566,10.199-10.199c0-4.393-2.782-8.126-6.676-9.562
		c4.474-1.778,7.195-6.535,6.236-11.43l-7.894-40.299h26.539V346.73H94.295V276.81z M272.407,398.697l-95.163-31.57h39.804
		c0.954,3.011,3.278,5.541,6.505,6.611c1.066,0.354,2.148,0.522,3.213,0.522c4.276,0,8.259-2.711,9.679-6.991l0.047-0.143h21.314
		C267.292,376.512,272.445,387.827,272.407,398.697z M429.096,488.909L118.44,385.851l6.211-18.724h21.887
		c-0.057,0.167-0.122,0.331-0.177,0.5c-0.852,2.568-0.649,5.369,0.564,7.786c1.213,2.417,3.337,4.254,5.904,5.106l124.399,41.268
		c1.066,0.354,2.148,0.522,3.213,0.522c4.276,0,8.259-2.71,9.679-6.991c5.245-15.812,2.713-33.03-6.459-48.191h126.371l26.61,8.827
		c1.066,0.354,2.148,0.522,3.213,0.522c4.275,0,8.259-2.711,9.679-6.991c1.774-5.346-1.123-11.118-6.469-12.892l-1.066-0.354v-53.83
		l44.112,14.634L429.096,488.909z"/>
	<path style="fill:#3B404F;" d="M413.361,444.887l-90.472-30.013c-5.349-1.775-11.118,1.123-12.892,6.469
		c-1.774,5.346,1.123,11.118,6.469,12.892l90.472,30.013c1.066,0.354,2.148,0.522,3.213,0.522c4.275,0,8.259-2.71,9.679-6.991
		C421.604,452.433,418.709,446.661,413.361,444.887z"/>
	<path style="fill:#3B404F;" d="M428.028,400.68l-90.472-30.013c-5.346-1.773-11.118,1.123-12.892,6.468
		c-1.774,5.346,1.123,11.118,6.469,12.892l90.472,30.013c1.066,0.354,2.148,0.522,3.213,0.522c4.275,0,8.259-2.711,9.679-6.991
		C436.271,408.225,433.374,402.453,428.028,400.68z"/>
	<path style="fill:#3B404F;" d="M392.806,309.902h-95.321c-5.633,0-10.199,4.566-10.199,10.199s4.566,10.199,10.199,10.199h95.321
		c5.633,0,10.199-4.566,10.199-10.199S398.439,309.902,392.806,309.902z"/>
	<path style="fill:#3B404F;" d="M392.806,263.324h-95.321c-5.633,0-10.199,4.566-10.199,10.199s4.566,10.199,10.199,10.199h95.321
		c5.633,0,10.199-4.566,10.199-10.199S398.439,263.324,392.806,263.324z"/>
	<path style="fill:#3B404F;" d="M192.521,164.237c-16.101-8.431-35.676-10.974-55.124-7.165c-0.127,0.025-0.253,0.057-0.379,0.083
		c-0.051,0.009-0.101,0.012-0.152,0.021c-0.116,0.022-0.226,0.058-0.342,0.085c-19.084,3.928-35.92,13.573-47.473,27.245
		c-12.277,14.528-17.218,31.819-13.914,48.688c0.954,4.866,5.22,8.241,9.998,8.241c0.65,0,1.31-0.063,1.972-0.192l128.621-25.195
		c5.528-1.083,9.131-6.442,8.048-11.97C220.472,187.208,209.372,173.059,192.521,164.237z M94.801,218.948
		c0.906-7.361,4.248-14.671,9.83-21.277c6.646-7.865,15.766-13.967,26.301-17.728l2.466,12.588c0.954,4.866,5.22,8.241,9.998,8.241
		c0.65,0,1.31-0.063,1.972-0.192c5.528-1.083,9.131-6.442,8.048-11.97l-2.495-12.733c1.382-0.083,2.759-0.138,4.127-0.138
		c10.081,0,19.718,2.228,28.011,6.568c7.663,4.012,13.516,9.521,17.132,15.996L94.801,218.948z"/>
	<path style="fill:#3B404F;" d="M128.819,151.278c2.23,0,4.494-0.214,6.762-0.659c18.999-3.722,31.429-22.207,27.708-41.208l0,0
		c-3.723-19-22.207-31.429-41.208-27.707c-19,3.722-31.429,22.208-27.708,41.208C97.651,139.642,112.373,151.278,128.819,151.278z
		 M126.003,101.722c0.952-0.187,1.899-0.276,2.833-0.276c6.891,0,13.061,4.876,14.435,11.887l0,0
		c1.559,7.963-3.649,15.709-11.611,17.268c-7.96,1.558-15.708-3.649-17.268-11.611C112.831,111.028,118.04,103.281,126.003,101.722z
		"/>
	<path style="fill:#3B404F;" d="M357.608,177.309c-1.083-5.528-6.443-9.13-11.97-8.048l-93.543,18.324
		c-5.528,1.083-9.131,6.442-8.048,11.97c0.954,4.866,5.22,8.241,9.998,8.241c0.65,0,1.31-0.063,1.971-0.192l93.543-18.324
		C355.088,188.196,358.69,182.837,357.608,177.309z"/>
	<path style="fill:#3B404F;" d="M247.063,161.894l93.543-18.324c5.528-1.083,9.131-6.442,8.048-11.97
		c-1.083-5.528-6.445-9.132-11.97-8.048l-93.543,18.324c-5.528,1.083-9.131,6.442-8.048,11.97c0.954,4.866,5.22,8.241,9.998,8.241
		C245.741,162.086,246.401,162.024,247.063,161.894z"/>
	<path style="fill:#3B404F;" d="M324.365,99.096c0.65,0,1.31-0.063,1.97-0.192l5.316-1.041c5.528-1.082,9.132-6.441,8.049-11.969
		c-1.082-5.528-6.441-9.13-11.969-8.049l-5.316,1.041c-5.528,1.082-9.132,6.441-8.049,11.969
		C315.319,95.72,319.587,99.096,324.365,99.096z"/>
	<path style="fill:#3B404F;" d="M238.109,116.185l49.961-9.787c5.528-1.083,9.131-6.442,8.048-11.97
		c-1.083-5.528-6.445-9.131-11.97-8.048l-49.961,9.787c-5.528,1.083-9.131,6.442-8.048,11.97c0.954,4.866,5.22,8.241,9.998,8.241
		C236.787,116.378,237.447,116.315,238.109,116.185z"/>
</g>
<g>
</g>
<g>
</g>
<g>
</g>
<g>
</g>
<g>
</g>
<g>
</g>
<g>
</g>
<g>
</g>
<g>
</g>
<g>
</g>
<g>
</g>
<g>
</g>
<g>
</g>
<g>
</g>
<g>
</g>
</svg>
