<?xml version="1.0" encoding="iso-8859-1"?>
<!-- Generator: Adobe Illustrator 19.0.0, SVG Export Plug-In . SVG Version: 6.00 Build 0)  -->
<svg version="1.1" id="Layer_1" xmlns="http://www.w3.org/2000/svg" xmlns:xlink="http://www.w3.org/1999/xlink" x="0px" y="0px"
	 viewBox="0 0 511.984 511.984" style="enable-background:new 0 0 511.984 511.984;" xml:space="preserve">
<path style="fill:#AC92EB;" d="M378.645,127.996c-5.875,0-10.656,4.781-10.656,10.671v362.661c0,5.891,4.781,10.656,10.656,10.656
	h106.686c5.873,0,10.654-4.766,10.654-10.656V202.666C495.984,176.838,471.456,127.996,378.645,127.996z"/>
<g>
	<path style="fill:#434A54;" d="M378.645,127.996c-5.875,0-10.656,4.781-10.656,10.671v63.999h127.996
		C495.984,176.838,471.456,127.996,378.645,127.996z"/>
	<path style="fill:#434A54;" d="M271.992,85.341c-5.891,0-10.664-4.781-10.664-10.672V10.671C261.328,4.78,266.102,0,271.992,0
		s10.656,4.78,10.656,10.671v63.998C282.648,80.559,277.883,85.341,271.992,85.341z"/>
</g>
<path style="fill:#4A89DC;" d="M313.896,63.998h-84.567c-5.891,0-10.671,4.781-10.671,10.671v63.998
	c0,5.891,4.781,10.672,10.671,10.672h84.567c5.875,0,10.656-4.781,10.656-10.672V74.669
	C324.553,68.779,319.771,63.998,313.896,63.998z"/>
<path style="fill:#5D9CEC;" d="M335.99,511.984H207.993c-5.89,0-10.664-4.766-10.664-10.656V138.667
	c0-5.89,4.773-10.671,10.664-10.671h127.997c5.891,0,10.656,4.781,10.656,10.671v362.661
	C346.646,507.219,341.882,511.984,335.99,511.984z"/>
<g>
	<path style="fill:#4A89DC;" d="M250.657,170.667c-5.891,0-10.664,4.78-10.664,10.671v330.646h21.335V181.338
		C261.328,175.447,256.547,170.667,250.657,170.667z"/>
	<path style="fill:#4A89DC;" d="M293.335,170.667c-5.906,0-10.686,4.78-10.686,10.671v330.646h21.342V181.338
		C303.99,175.447,299.21,170.667,293.335,170.667z"/>
</g>
<rect x="218.662" y="85.342" style="fill:#397EC9;" width="105.89" height="21.327"/>
<g>
	<path style="fill:#967ADC;" d="M453.456,266.664h-42.654c-5.891,0-10.672-4.781-10.672-10.672s4.781-10.656,10.672-10.656h42.654
		c5.906,0,10.672,4.766,10.672,10.656C464.128,261.882,459.361,266.664,453.456,266.664z"/>
	<path style="fill:#967ADC;" d="M453.456,309.334h-42.654c-5.891,0-10.672-4.781-10.672-10.672c0-5.89,4.781-10.671,10.672-10.671
		h42.654c5.906,0,10.672,4.781,10.672,10.671C464.128,304.553,459.361,309.334,453.456,309.334z"/>
	<path style="fill:#967ADC;" d="M453.456,351.989h-42.654c-5.891,0-10.672-4.766-10.672-10.656s4.781-10.671,10.672-10.671h42.654
		c5.906,0,10.672,4.781,10.672,10.671S459.361,351.989,453.456,351.989z"/>
	<path style="fill:#967ADC;" d="M453.456,394.66h-42.654c-5.891,0-10.672-4.766-10.672-10.672c0-5.891,4.781-10.656,10.672-10.656
		h42.654c5.906,0,10.672,4.766,10.672,10.656C464.128,389.894,459.361,394.66,453.456,394.66z"/>
	<path style="fill:#967ADC;" d="M453.456,437.33h-42.654c-5.891,0-10.672-4.781-10.672-10.671c0-5.891,4.781-10.672,10.672-10.672
		h42.654c5.906,0,10.672,4.781,10.672,10.672C464.128,432.549,459.361,437.33,453.456,437.33z"/>
	<path style="fill:#967ADC;" d="M453.456,479.985h-42.654c-5.891,0-10.672-4.765-10.672-10.655s4.781-10.672,10.672-10.672h42.654
		c5.906,0,10.672,4.781,10.672,10.672S459.361,479.985,453.456,479.985z"/>
</g>
<path style="fill:#656D78;" d="M399.895,175.572c19.094,5.547,31.623,14.656,37.311,27.094h22.141c0-1.141-0.172-2.312-0.578-3.453
	c-16.859-49.312-87.779-49.874-90.779-49.874v21.328C368.145,170.667,383.191,170.729,399.895,175.572z"/>
<path style="fill:#ED5564;" d="M165.331,223.993H37.334c-5.89,0-10.671,4.781-10.671,10.672v266.663
	c0,5.891,4.781,10.656,10.671,10.656h127.997c5.89,0,10.664-4.766,10.664-10.656V234.665
	C175.994,228.774,171.221,223.993,165.331,223.993z"/>
<g>
	<path style="fill:#F6BB42;" d="M69.334,319.99c-5.89,0-10.671-4.766-10.671-10.656v-18.671c0-5.891,4.781-10.672,10.671-10.672
		c5.891,0,10.664,4.781,10.664,10.672v18.671C79.997,315.224,75.225,319.99,69.334,319.99z"/>
	<path style="fill:#F6BB42;" d="M101.332,319.99c-5.89,0-10.671-4.766-10.671-10.656v-18.671c0-5.891,4.781-10.672,10.671-10.672
		c5.891,0,10.664,4.781,10.664,10.672v18.671C111.996,315.224,107.224,319.99,101.332,319.99z"/>
	<path style="fill:#F6BB42;" d="M133.332,319.99c-5.891,0-10.672-4.766-10.672-10.656v-18.671c0-5.891,4.781-10.672,10.672-10.672
		c5.89,0,10.664,4.781,10.664,10.672v18.671C143.995,315.224,139.222,319.99,133.332,319.99z"/>
	<path style="fill:#F6BB42;" d="M69.334,373.332c-5.89,0-10.671-4.781-10.671-10.672v-18.671c0-5.874,4.781-10.655,10.671-10.655
		c5.891,0,10.664,4.781,10.664,10.655v18.671C79.997,368.551,75.225,373.332,69.334,373.332z"/>
	<path style="fill:#F6BB42;" d="M101.332,373.332c-5.89,0-10.671-4.781-10.671-10.672v-18.671c0-5.874,4.781-10.655,10.671-10.655
		c5.891,0,10.664,4.781,10.664,10.655v18.671C111.996,368.551,107.224,373.332,101.332,373.332z"/>
	<path style="fill:#F6BB42;" d="M133.332,373.332c-5.891,0-10.672-4.781-10.672-10.672v-18.671c0-5.874,4.781-10.655,10.672-10.655
		c5.89,0,10.664,4.781,10.664,10.655v18.671C143.995,368.551,139.222,373.332,133.332,373.332z"/>
	<path style="fill:#F6BB42;" d="M69.334,426.659c-5.89,0-10.671-4.766-10.671-10.672v-18.655c0-5.891,4.781-10.672,10.671-10.672
		c5.891,0,10.664,4.781,10.664,10.672v18.655C79.997,421.893,75.225,426.659,69.334,426.659z"/>
	<path style="fill:#F6BB42;" d="M101.332,426.659c-5.89,0-10.671-4.766-10.671-10.672v-18.655c0-5.891,4.781-10.672,10.671-10.672
		c5.891,0,10.664,4.781,10.664,10.672v18.655C111.996,421.893,107.224,426.659,101.332,426.659z"/>
	<path style="fill:#F6BB42;" d="M133.332,426.659c-5.891,0-10.672-4.766-10.672-10.672v-18.655c0-5.891,4.781-10.672,10.672-10.672
		c5.89,0,10.664,4.781,10.664,10.672v18.655C143.995,421.893,139.222,426.659,133.332,426.659z"/>
	<path style="fill:#F6BB42;" d="M69.334,479.985c-5.89,0-10.671-4.765-10.671-10.655v-18.672c0-5.891,4.781-10.672,10.671-10.672
		c5.891,0,10.664,4.781,10.664,10.672v18.672C79.997,475.221,75.225,479.985,69.334,479.985z"/>
	<path style="fill:#F6BB42;" d="M101.332,479.985c-5.89,0-10.671-4.765-10.671-10.655v-18.672c0-5.891,4.781-10.672,10.671-10.672
		c5.891,0,10.664,4.781,10.664,10.672v18.672C111.996,475.221,107.224,479.985,101.332,479.985z"/>
	<path style="fill:#F6BB42;" d="M133.332,479.985c-5.891,0-10.672-4.765-10.672-10.655v-18.672c0-5.891,4.781-10.672,10.672-10.672
		c5.89,0,10.664,4.781,10.664,10.672v18.672C143.995,475.221,139.222,479.985,133.332,479.985z"/>
</g>
<path style="fill:#656D78;" d="M175.994,245.336H26.663c-5.891,0-10.664-4.781-10.664-10.671c0-5.891,4.773-10.672,10.664-10.672
	h149.332c5.891,0,10.664,4.781,10.664,10.672C186.658,240.554,181.885,245.336,175.994,245.336z"/>
<g>
</g>
<g>
</g>
<g>
</g>
<g>
</g>
<g>
</g>
<g>
</g>
<g>
</g>
<g>
</g>
<g>
</g>
<g>
</g>
<g>
</g>
<g>
</g>
<g>
</g>
<g>
</g>
<g>
</g>
</svg>
