<?xml version="1.0" standalone="no"?>
<!DOCTYPE svg PUBLIC "-//W3C//DTD SVG 20010904//EN"
 "http://www.w3.org/TR/2001/REC-SVG-20010904/DTD/svg10.dtd">
<svg version="1.0" xmlns="http://www.w3.org/2000/svg"
 width="376.000000pt" height="376.000000pt" viewBox="0 0 376.000000 376.000000"
 preserveAspectRatio="xMidYMid meet">
<metadata>
Created by potrace 1.14, written by Peter Selinger 2001-2017
</metadata>
<g transform="translate(0.000000,376.000000) scale(0.100000,-0.100000)"
fill="#000000" stroke="none">
<path d="M1703 3481 c-36 -23 -43 -38 -30 -67 16 -37 50 -46 114 -29 46 11 56
86 13 100 -46 15 -67 14 -97 -4z"/>
<path d="M1965 3475 c-42 -41 -5 -95 65 -95 106 0 105 108 -1 116 -32 2 -46
-2 -64 -21z"/>
<path d="M1440 3432 c-41 -21 -60 -66 -38 -89 39 -38 129 -17 149 34 20 52
-49 87 -111 55z"/>
<path d="M2234 3425 c-14 -22 -15 -30 -4 -49 25 -48 105 -62 140 -24 26 28 25
34 -9 69 -40 40 -102 41 -127 4z"/>
<path d="M2506 3344 c-40 -40 11 -114 80 -114 73 0 79 81 9 115 -42 19 -69 19
-89 -1z"/>
<path d="M1190 3339 c-29 -11 -59 -47 -60 -70 0 -50 80 -64 129 -23 37 31 40
66 9 88 -25 18 -42 19 -78 5z"/>
<path d="M1754 3312 c-12 -2 -30 -12 -40 -23 -17 -19 -17 -23 -3 -47 35 -64
143 -21 109 43 -13 25 -32 33 -66 27z"/>
<path d="M1984 3310 c-29 -11 -37 -26 -30 -56 13 -52 98 -57 117 -7 8 21 6 30
-9 45 -22 22 -50 28 -78 18z"/>
<path d="M2234 3272 c-12 -1 -26 -14 -32 -27 -9 -19 -7 -28 9 -49 33 -42 109
-29 109 18 0 37 -42 66 -86 58z"/>
<path d="M1492 3260 c-47 -19 -41 -84 8 -95 60 -13 108 47 69 86 -21 21 -41
23 -77 9z"/>
<path d="M2746 3204 c-56 -55 64 -158 122 -104 18 17 20 24 11 50 -21 60 -97
91 -133 54z"/>
<path d="M962 3199 c-73 -29 -84 -129 -15 -129 36 0 73 22 89 51 19 39 18 55
-8 73 -25 18 -33 19 -66 5z"/>
<path d="M2448 3179 c-25 -14 -22 -46 7 -74 29 -30 58 -32 85 -5 19 19 19 23
6 49 -21 40 -60 52 -98 30z"/>
<path d="M1250 3160 c-43 -43 -11 -100 48 -85 31 8 51 32 52 62 0 42 -66 57
-100 23z"/>
<path d="M1748 3113 c-20 -24 -12 -52 19 -64 44 -16 83 37 51 69 -17 17 -53
15 -70 -5z"/>
<path d="M1962 3118 c-19 -19 -14 -46 12 -63 41 -27 89 13 66 55 -12 23 -59
27 -78 8z"/>
<path d="M2179 3079 c-26 -26 -8 -69 31 -69 46 0 67 43 34 71 -24 20 -44 19
-65 -2z"/>
<path d="M1538 3079 c-24 -13 -23 -42 1 -63 36 -33 88 5 70 52 -9 24 -41 29
-71 11z"/>
<path d="M2674 3060 c-41 -16 -36 -65 10 -95 47 -31 97 9 75 58 -9 19 -50 50
-62 46 -1 0 -11 -4 -23 -9z"/>
<path d="M1052 3040 c-70 -43 -24 -128 49 -89 27 14 42 55 29 78 -14 27 -45
31 -78 11z"/>
<path d="M2956 3024 c-21 -54 25 -124 81 -124 60 0 73 61 24 111 -34 33 -94
41 -105 13z"/>
<path d="M737 3006 c-27 -23 -47 -56 -47 -80 0 -22 28 -46 56 -46 30 0 80 46
88 81 12 55 -51 84 -97 45z"/>
<path d="M1349 3007 c-44 -23 -33 -79 16 -79 30 0 45 16 45 49 0 31 -30 45
-61 30z"/>
<path d="M2382 3008 c-20 -20 -14 -54 13 -68 20 -11 28 -10 49 3 38 26 19 76
-29 77 -12 0 -26 -5 -33 -12z"/>
<path d="M1770 2930 c-14 -27 23 -68 46 -49 19 15 18 55 -2 63 -25 10 -33 7
-44 -14z"/>
<path d="M1960 2935 c-16 -19 -3 -55 19 -55 26 0 44 25 36 50 -7 23 -37 27
-55 5z"/>
<path d="M1596 2904 c-20 -19 -20 -29 0 -48 19 -19 26 -20 42 -4 18 18 14 46
-7 58 -15 7 -23 6 -35 -6z"/>
<path d="M2141 2898 c-11 -29 5 -50 33 -46 13 2 22 12 24 27 6 41 -43 57 -57
19z"/>
<path d="M2565 2890 c-15 -47 23 -82 65 -60 22 12 27 49 8 68 -20 20 -66 15
-73 -8z"/>
<path d="M2858 2898 c-23 -19 -27 -40 -11 -70 15 -31 57 -46 82 -31 9 6 17 24
19 40 2 23 -3 36 -24 52 -31 24 -44 26 -66 9z"/>
<path d="M1145 2880 c-17 -18 -17 -21 -1 -45 21 -32 51 -32 71 -1 33 51 -29
91 -70 46z"/>
<path d="M858 2873 c-27 -31 -30 -58 -10 -83 16 -20 23 -21 48 -13 65 22 70
113 6 113 -16 0 -36 -8 -44 -17z"/>
<path d="M2327 2848 c-20 -11 -22 -41 -3 -57 26 -22 63 10 50 43 -8 20 -27 26
-47 14z"/>
<path d="M1420 2835 c-14 -16 -5 -51 14 -58 8 -3 22 0 32 8 16 11 16 17 6 39
-13 29 -33 33 -52 11z"/>
<path d="M3140 2811 c-16 -31 -12 -66 11 -95 39 -50 90 -51 108 -3 25 67 -86
158 -119 98z"/>
<path d="M555 2776 c-25 -27 -32 -42 -30 -66 3 -39 16 -52 50 -52 59 0 107 91
70 132 -26 29 -53 25 -90 -14z"/>
<path d="M1801 2752 c-8 -15 -7 -23 4 -32 16 -13 35 -6 35 14 0 8 -6 19 -14
25 -12 10 -17 8 -25 -7z"/>
<path d="M1954 2755 c-8 -21 3 -48 19 -43 19 7 22 58 2 58 -8 0 -18 -7 -21
-15z"/>
<path d="M2730 2750 c-9 -17 -8 -26 5 -46 18 -28 46 -31 68 -6 13 15 14 22 4
42 -17 33 -61 39 -77 10z"/>
<path d="M985 2736 c-17 -26 -11 -52 15 -66 27 -14 70 22 62 52 -11 44 -53 51
-77 14z"/>
<path d="M2480 2745 c-16 -20 -9 -49 14 -53 24 -5 46 22 39 48 -6 23 -35 26
-53 5z"/>
<path d="M1255 2730 c-8 -25 10 -50 36 -50 22 0 35 36 19 55 -18 22 -48 18
-55 -5z"/>
<path d="M1646 2724 c-7 -19 12 -46 28 -41 14 5 15 28 3 45 -13 17 -24 15 -31
-4z"/>
<path d="M2104 2726 c-3 -8 -2 -22 4 -31 8 -15 10 -16 25 -1 18 19 12 46 -9
46 -8 0 -17 -6 -20 -14z"/>
<path d="M3022 2713 c-22 -8 -33 -50 -21 -77 31 -66 121 -42 103 28 -4 18 -52
58 -66 55 -1 0 -9 -3 -16 -6z"/>
<path d="M705 2674 c-30 -32 -32 -57 -6 -83 34 -34 94 1 94 54 0 54 -51 69
-88 29z"/>
<path d="M2251 2671 c-14 -26 10 -48 29 -26 13 16 7 45 -9 45 -6 0 -15 -9 -20
-19z"/>
<path d="M1500 2660 c0 -11 7 -23 16 -27 20 -8 36 17 22 34 -16 20 -38 15 -38
-7z"/>
<path d="M2620 2625 c-18 -22 -8 -50 19 -50 32 0 49 28 32 49 -17 20 -35 20
-51 1z"/>
<path d="M1122 2618 c-18 -18 -15 -35 10 -52 16 -11 25 -13 35 -4 24 20 9 68
-22 68 -6 0 -16 -5 -23 -12z"/>
<path d="M2380 2590 c-9 -16 -8 -22 5 -26 20 -8 45 13 38 32 -8 20 -31 17 -43
-6z"/>
<path d="M2880 2592 c-30 -24 -21 -69 15 -78 52 -13 75 52 29 83 -19 12 -24
11 -44 -5z"/>
<path d="M1367 2594 c-10 -10 12 -44 29 -44 10 0 14 8 12 22 -3 22 -27 35 -41
22z"/>
<path d="M858 2576 c-22 -16 -23 -49 -2 -70 19 -20 24 -20 52 0 26 18 28 46 6
68 -19 19 -33 20 -56 2z"/>
<path d="M1827 2583 c-12 -12 -7 -33 8 -33 17 0 19 9 7 28 -5 7 -11 9 -15 5z"/>
<path d="M1946 2574 c-9 -22 -8 -24 9 -24 8 0 15 6 15 14 0 22 -17 28 -24 10z"/>
<path d="M3287 2573 c-15 -17 -21 -41 -18 -74 2 -26 48 -69 74 -69 65 0 68
100 5 144 -29 20 -41 20 -61 -1z"/>
<path d="M435 2548 c-30 -23 -45 -73 -33 -109 17 -49 74 -43 107 12 42 70 -14
144 -74 97z"/>
<path d="M1700 2546 c0 -8 4 -17 9 -20 10 -7 23 19 14 28 -11 11 -23 6 -23 -8z"/>
<path d="M2067 2554 c-9 -9 4 -35 14 -28 5 3 9 12 9 20 0 14 -12 19 -23 8z"/>
<path d="M1587 2514 c-8 -8 3 -34 14 -34 11 0 12 27 0 34 -4 3 -11 3 -14 0z"/>
<path d="M2180 2499 c0 -18 2 -19 15 -9 8 7 15 16 15 21 0 5 -7 9 -15 9 -9 0
-15 -9 -15 -21z"/>
<path d="M2500 2495 c-10 -12 -10 -18 0 -31 12 -13 15 -13 28 0 15 15 10 46
-6 46 -5 0 -15 -7 -22 -15z"/>
<path d="M1254 2485 c-8 -20 4 -35 27 -35 21 0 25 20 7 38 -16 16 -27 15 -34
-3z"/>
<path d="M3130 2485 c-21 -25 -15 -67 13 -91 47 -40 96 -3 76 56 -17 47 -64
65 -89 35z"/>
<path d="M2730 2471 c-14 -27 13 -55 40 -41 25 13 31 25 24 44 -9 22 -51 20
-64 -3z"/>
<path d="M592 2460 c-31 -29 -30 -86 1 -96 12 -4 28 -7 36 -5 39 7 59 66 35
100 -19 27 -44 27 -72 1z"/>
<path d="M1003 2469 c-15 -15 -4 -47 19 -55 30 -9 53 18 39 45 -13 23 -40 28
-58 10z"/>
<path d="M2287 2446 c-6 -16 2 -28 14 -20 12 7 11 34 0 34 -5 0 -11 -6 -14
-14z"/>
<path d="M1480 2436 c0 -9 7 -16 16 -16 17 0 14 22 -4 28 -7 2 -12 -3 -12 -12z"/>
<path d="M2972 2393 c-10 -19 0 -57 18 -68 18 -11 57 3 62 23 3 10 1 28 -3 40
-10 28 -64 31 -77 5z"/>
<path d="M756 2385 c-23 -24 -20 -62 7 -76 12 -7 23 -13 23 -13 7 -4 44 41 44
53 -1 39 -48 62 -74 36z"/>
<path d="M2602 2378 c-20 -20 -14 -40 11 -36 14 2 22 10 22 22 0 24 -16 31
-33 14z"/>
<path d="M1153 2364 c-3 -8 0 -21 7 -29 15 -18 52 -2 44 19 -8 20 -44 27 -51
10z"/>
<path d="M2380 2360 c-6 -11 -7 -20 -2 -20 10 0 32 21 32 32 0 16 -19 8 -30
-12z"/>
<path d="M1386 2361 c-7 -10 18 -34 27 -25 7 8 -3 34 -13 34 -5 0 -11 -4 -14
-9z"/>
<path d="M2819 2309 c-11 -22 -4 -36 21 -39 28 -4 38 0 43 19 10 40 -44 57
-64 20z"/>
<path d="M3388 2316 c-27 -20 -36 -47 -27 -85 22 -98 130 -90 116 10 -8 62
-54 101 -89 75z"/>
<path d="M921 2307 c-14 -14 -14 -44 0 -52 5 -4 21 -4 35 -1 19 5 24 12 22 28
-4 25 -41 41 -57 25z"/>
<path d="M343 2278 c-40 -43 -35 -120 9 -137 29 -11 54 2 72 37 40 79 -26 160
-81 100z"/>
<path d="M2457 2273 c-12 -11 -8 -23 7 -23 8 0 16 7 20 15 5 15 -14 21 -27 8z"/>
<path d="M1312 2259 c2 -7 10 -15 17 -17 8 -3 12 1 9 9 -2 7 -10 15 -17 17 -8
3 -12 -1 -9 -9z"/>
<path d="M3222 2255 c-29 -21 -33 -61 -10 -90 35 -45 88 -27 88 30 -1 53 -42
85 -78 60z"/>
<path d="M526 2237 c-20 -16 -36 -60 -29 -85 2 -11 16 -25 29 -31 48 -21 96
58 62 101 -19 22 -44 28 -62 15z"/>
<path d="M2670 2235 c-9 -11 -10 -19 -3 -26 15 -15 54 7 47 26 -8 19 -28 19
-44 0z"/>
<path d="M1087 2233 c-22 -21 11 -51 40 -35 13 8 13 11 -2 25 -18 18 -28 21
-38 10z"/>
<path d="M3045 2186 c-18 -26 -11 -52 16 -67 28 -15 59 6 59 39 0 53 -47 71
-75 28z"/>
<path d="M686 2168 c-20 -29 -20 -34 4 -58 16 -16 24 -18 44 -8 32 14 37 29
22 59 -16 33 -50 36 -70 7z"/>
<path d="M2515 2159 c-4 -6 -5 -12 -2 -15 7 -7 37 7 37 17 0 13 -27 11 -35 -2z"/>
<path d="M1252 2148 c5 -15 28 -18 29 -3 0 6 -7 12 -17 13 -10 3 -15 -1 -12
-10z"/>
<path d="M2898 2153 c-37 -9 -31 -63 8 -63 32 0 49 33 26 52 -9 8 -24 13 -34
11z"/>
<path d="M859 2124 c-16 -20 -1 -48 29 -52 29 -5 47 31 26 52 -20 20 -38 20
-55 0z"/>
<path d="M2715 2090 c-9 -15 3 -30 25 -30 18 0 34 23 23 34 -10 10 -41 7 -48
-4z"/>
<path d="M1034 2078 c-4 -6 1 -17 12 -25 15 -11 20 -11 34 2 13 14 13 17 0 25
-20 13 -37 12 -46 -2z"/>
<path d="M2563 2053 c-18 -6 -16 -23 1 -23 17 0 30 16 19 23 -5 2 -14 2 -20 0z"/>
<path d="M1215 2041 c-6 -11 20 -33 28 -24 4 3 7 10 7 14 0 11 -29 19 -35 10z"/>
<path d="M3435 2038 c-29 -16 -35 -28 -35 -69 0 -73 62 -111 100 -61 28 35 22
97 -12 124 -27 21 -27 21 -53 6z"/>
<path d="M306 2005 c-48 -49 -23 -145 38 -145 27 0 56 41 56 80 0 66 -54 104
-94 65z"/>
<path d="M3250 2000 c-26 -26 -25 -60 0 -88 24 -26 43 -28 64 -7 23 23 28 52
15 77 -23 43 -48 49 -79 18z"/>
<path d="M480 1973 c-22 -28 -21 -63 2 -90 26 -32 88 5 88 52 0 27 -32 65 -54
65 -8 0 -24 -12 -36 -27z"/>
<path d="M3100 1993 c-9 -2 -21 -13 -28 -24 -11 -17 -11 -25 3 -45 19 -29 49
-31 68 -3 25 34 -3 80 -43 72z"/>
<path d="M674 1970 c-12 -5 -24 -17 -27 -29 -6 -25 18 -61 43 -61 10 0 25 9
33 21 28 39 -5 85 -49 69z"/>
<path d="M2905 1954 c-16 -16 -15 -18 3 -36 16 -17 23 -18 41 -8 15 7 21 19
19 33 -4 28 -40 34 -63 11z"/>
<path d="M845 1946 c-27 -20 -15 -51 20 -51 23 0 31 5 33 22 4 29 -28 47 -53
29z"/>
<path d="M2735 1940 c-9 -15 4 -30 25 -30 24 0 36 20 19 31 -19 12 -36 11 -44
-1z"/>
<path d="M1021 1926 c-14 -17 9 -39 33 -30 19 7 20 16 4 32 -15 15 -23 15 -37
-2z"/>
<path d="M2565 1920 c-4 -6 5 -10 20 -10 15 0 24 4 20 10 -3 6 -12 10 -20 10
-8 0 -17 -4 -20 -10z"/>
<path d="M1196 1911 c-3 -5 0 -11 7 -13 17 -7 38 2 31 13 -7 12 -31 12 -38 0z"/>
<path d="M2565 1801 c-7 -12 12 -24 25 -16 11 7 4 25 -10 25 -5 0 -11 -4 -15
-9z"/>
<path d="M1205 1791 c-3 -5 -1 -12 5 -16 12 -7 30 2 30 16 0 12 -27 12 -35 0z"/>
<path d="M2735 1786 c-15 -11 -15 -13 -1 -25 18 -15 46 -8 46 13 0 20 -25 27
-45 12z"/>
<path d="M2903 1775 c-14 -11 -16 -18 -7 -32 23 -37 84 -21 64 17 -13 25 -35
31 -57 15z"/>
<path d="M1025 1770 c-4 -7 -3 -16 3 -22 14 -14 47 -6 47 12 0 18 -40 26 -50
10z"/>
<path d="M3071 1761 c-25 -25 -17 -59 17 -74 21 -10 27 -8 43 11 19 24 16 49
-9 70 -21 16 -29 15 -51 -7z"/>
<path d="M850 1755 c-25 -30 15 -70 45 -45 20 16 19 46 -1 54 -23 9 -30 8 -44
-9z"/>
<path d="M3236 1745 c-9 -13 -14 -35 -12 -47 3 -13 5 -26 5 -31 1 -4 13 -12
27 -18 32 -11 58 7 69 48 15 60 -56 98 -89 48z"/>
<path d="M3415 1745 c-50 -49 -20 -157 38 -140 57 17 75 105 31 149 -22 22
-41 20 -69 -9z"/>
<path d="M679 1748 c-35 -28 -27 -68 18 -82 17 -5 26 -1 37 16 15 23 12 68 -4
68 -5 0 -14 2 -22 5 -7 3 -21 0 -29 -7z"/>
<path d="M322 1734 c-26 -18 -33 -71 -15 -111 34 -74 116 -43 107 40 -6 62
-54 98 -92 71z"/>
<path d="M496 1737 c-20 -15 -24 -70 -7 -91 21 -25 51 -29 72 -10 25 22 24 69
-1 94 -23 23 -39 25 -64 7z"/>
<path d="M2542 1679 c2 -7 10 -15 17 -17 8 -3 12 1 9 9 -2 7 -10 15 -17 17 -8
3 -12 -1 -9 -9z"/>
<path d="M1235 1669 c-4 -6 -4 -13 -1 -16 8 -8 36 5 36 17 0 13 -27 13 -35 -1z"/>
<path d="M2702 1638 c-13 -13 2 -38 24 -38 20 0 27 19 14 35 -15 18 -22 19
-38 3z"/>
<path d="M1060 1609 c0 -15 5 -20 22 -17 34 5 37 38 4 38 -20 0 -26 -5 -26
-21z"/>
<path d="M2867 1599 c-25 -14 -21 -44 8 -57 21 -10 27 -8 39 10 8 12 13 25 10
30 -11 17 -40 26 -57 17z"/>
<path d="M892 1578 c-16 -16 -15 -33 3 -48 21 -18 55 -3 55 25 0 32 -35 46
-58 23z"/>
<path d="M2490 1565 c0 -9 9 -15 21 -15 18 0 19 2 9 15 -7 8 -16 15 -21 15 -5
0 -9 -7 -9 -15z"/>
<path d="M1287 1563 c-12 -11 -8 -23 8 -23 8 0 15 7 15 15 0 16 -12 20 -23 8z"/>
<path d="M3029 1551 c-20 -16 -22 -23 -14 -47 12 -34 45 -43 69 -18 22 21 17
53 -10 71 -19 12 -24 11 -45 -6z"/>
<path d="M728 1539 c-28 -16 -23 -67 7 -81 21 -9 28 -8 45 7 25 23 25 40 0 65
-23 23 -28 24 -52 9z"/>
<path d="M3210 1523 c-38 -15 -52 -72 -25 -107 21 -27 63 -14 80 26 14 35 10
56 -13 76 -17 13 -20 13 -42 5z"/>
<path d="M550 1490 c-26 -26 -25 -51 1 -84 24 -30 49 -33 72 -8 24 26 21 59
-8 87 -29 30 -39 31 -65 5z"/>
<path d="M2641 1496 c-16 -19 20 -51 37 -34 17 17 15 26 -7 37 -14 8 -22 7
-30 -3z"/>
<path d="M1123 1474 c-3 -9 0 -20 8 -24 15 -10 39 6 39 26 0 19 -39 18 -47 -2z"/>
<path d="M3351 1464 c-12 -15 -22 -31 -22 -35 -1 -5 -2 -15 -3 -21 -5 -30 17
-68 42 -75 20 -5 31 0 54 26 30 33 36 76 18 112 -16 29 -64 25 -89 -7z"/>
<path d="M2426 1472 c-3 -6 1 -15 8 -21 8 -7 17 -8 20 -3 3 6 -1 15 -8 21 -8
7 -17 8 -20 3z"/>
<path d="M383 1462 c-20 -13 -31 -55 -22 -86 20 -68 86 -91 112 -38 32 63 -37
158 -90 124z"/>
<path d="M1360 1460 c-11 -7 -12 -12 -4 -20 8 -8 14 -7 23 4 14 17 1 28 -19
16z"/>
<path d="M2787 1424 c-12 -12 -8 -32 9 -48 21 -22 56 -3 52 27 -3 22 -45 36
-61 21z"/>
<path d="M967 1402 c-19 -21 -6 -52 23 -52 26 0 45 36 29 56 -15 19 -33 18
-52 -4z"/>
<path d="M2345 1380 c-7 -12 2 -30 16 -30 12 0 12 27 0 35 -5 3 -12 1 -16 -5z"/>
<path d="M1447 1373 c-4 -3 -7 -13 -7 -21 0 -12 3 -12 15 -2 8 7 15 16 15 21
0 11 -14 12 -23 2z"/>
<path d="M2555 1371 c-9 -16 6 -41 25 -41 25 0 31 12 17 30 -14 18 -34 23 -42
11z"/>
<path d="M1228 1362 c-11 -2 -18 -13 -18 -27 0 -18 4 -22 20 -18 11 3 23 9 26
14 9 15 -10 35 -28 31z"/>
<path d="M2953 1357 c-17 -7 -23 -19 -23 -42 0 -50 48 -63 75 -21 28 42 -7 84
-52 63z"/>
<path d="M805 1326 c-18 -26 -11 -52 16 -67 48 -25 85 45 41 79 -24 18 -40 15
-57 -12z"/>
<path d="M2245 1310 c-7 -12 2 -30 16 -30 12 0 12 27 0 35 -5 3 -12 1 -16 -5z"/>
<path d="M1543 1295 c-8 -22 6 -33 17 -15 13 20 12 30 0 30 -6 0 -13 -7 -17
-15z"/>
<path d="M3094 1275 c-28 -28 -31 -66 -6 -87 22 -20 52 -15 74 13 50 60 -13
129 -68 74z"/>
<path d="M646 1265 c-23 -24 -20 -62 8 -90 52 -52 117 17 69 73 -25 29 -58 36
-77 17z"/>
<path d="M2689 1264 c-17 -21 0 -49 32 -49 27 0 37 28 19 50 -16 19 -34 19
-51 -1z"/>
<path d="M1076 1254 c-21 -20 -20 -41 1 -53 37 -20 71 27 41 57 -16 16 -23 15
-42 -4z"/>
<path d="M2453 1254 c-7 -18 20 -49 35 -40 14 8 4 43 -14 50 -8 3 -17 -1 -21
-10z"/>
<path d="M1326 1244 c-13 -12 -14 -19 -6 -29 13 -16 36 -10 44 10 2 7 -1 19
-9 25 -10 8 -17 7 -29 -6z"/>
<path d="M1654 1246 c-8 -22 3 -33 18 -18 9 9 9 15 0 24 -9 9 -13 7 -18 -6z"/>
<path d="M2130 1252 c0 -5 7 -16 16 -23 14 -12 16 -11 13 5 -4 20 -29 35 -29
18z"/>
<path d="M1774 1217 c-8 -21 2 -35 16 -21 5 5 6 15 0 24 -8 12 -10 12 -16 -3z"/>
<path d="M2017 1224 c-8 -8 3 -34 14 -34 11 0 12 27 0 34 -4 3 -11 3 -14 0z"/>
<path d="M3250 1210 c-31 -31 -41 -65 -29 -100 21 -60 108 -30 123 42 13 65
-49 103 -94 58z"/>
<path d="M1894 1206 c-8 -22 3 -33 18 -18 9 9 9 15 0 24 -9 9 -13 7 -18 -6z"/>
<path d="M485 1196 c-38 -27 -11 -116 41 -136 52 -20 84 24 64 85 -19 57 -66
80 -105 51z"/>
<path d="M2822 1168 c-13 -13 -15 -37 -6 -62 9 -22 47 -20 69 4 37 41 -24 97
-63 58z"/>
<path d="M930 1150 c-11 -11 -20 -24 -20 -30 0 -5 9 -19 20 -30 11 -11 25 -20
30 -20 6 0 19 9 30 20 11 11 20 25 20 30 0 6 -9 19 -20 30 -11 11 -24 20 -30
20 -5 0 -19 -9 -30 -20z"/>
<path d="M1450 1155 c-7 -8 -10 -22 -6 -30 8 -21 49 -1 44 22 -4 23 -23 27
-38 8z"/>
<path d="M2320 1165 c0 -17 22 -45 36 -45 25 0 13 44 -13 48 -13 2 -23 1 -23
-3z"/>
<path d="M2557 1126 c-13 -33 16 -62 49 -49 9 3 14 15 12 32 -2 20 -9 27 -29
29 -17 2 -29 -3 -32 -12z"/>
<path d="M1194 1108 c-7 -22 19 -52 40 -45 17 6 29 34 23 51 -10 24 -54 21
-63 -6z"/>
<path d="M2197 1103 c-11 -10 -8 -41 4 -49 17 -10 32 12 24 35 -6 21 -16 26
-28 14z"/>
<path d="M1586 1084 c-7 -19 1 -34 19 -34 15 0 28 27 19 41 -9 14 -31 10 -38
-7z"/>
<path d="M2956 1063 c-37 -36 -22 -93 24 -93 50 0 88 72 53 102 -25 21 -50 19
-77 -9z"/>
<path d="M782 1058 c-40 -50 15 -126 73 -100 18 9 25 19 25 41 0 49 -71 91
-98 59z"/>
<path d="M2047 1063 c-12 -12 -7 -44 8 -49 25 -10 35 4 23 31 -11 26 -20 30
-31 18z"/>
<path d="M1734 1045 c-4 -8 0 -22 7 -31 12 -14 14 -14 25 1 7 9 10 23 7 31 -7
19 -32 18 -39 -1z"/>
<path d="M1887 1036 c-3 -8 0 -22 7 -31 11 -15 13 -15 25 -1 15 18 8 46 -13
46 -7 0 -16 -6 -19 -14z"/>
<path d="M1356 1014 c-20 -19 -20 -38 -2 -53 33 -28 74 27 44 57 -16 16 -23
15 -42 -4z"/>
<path d="M2408 1018 c-7 -20 2 -46 18 -52 26 -10 45 5 42 33 -2 20 -9 27 -29
29 -16 2 -29 -2 -31 -10z"/>
<path d="M2682 1014 c-43 -30 -18 -93 33 -80 25 6 43 45 30 65 -14 24 -42 30
-63 15z"/>
<path d="M1084 1002 c-34 -23 -12 -82 31 -82 28 0 48 30 38 57 -8 22 -23 33
-43 33 -8 0 -20 -4 -26 -8z"/>
<path d="M3125 990 c-53 -20 -81 -95 -50 -130 40 -45 133 24 120 89 -8 40 -33
55 -70 41z"/>
<path d="M641 964 c-30 -22 -27 -67 7 -105 32 -36 78 -42 99 -13 18 24 16 43
-6 80 -25 41 -71 58 -100 38z"/>
<path d="M1527 939 c-32 -19 -13 -74 22 -61 34 12 41 46 13 61 -11 6 -24 6
-35 0z"/>
<path d="M2247 943 c-16 -15 -6 -52 15 -59 28 -9 52 20 37 47 -10 19 -39 25
-52 12z"/>
<path d="M2804 898 c-57 -26 -53 -108 4 -108 33 0 72 36 72 67 0 35 -41 56
-76 41z"/>
<path d="M1702 888 c-18 -18 -15 -46 7 -57 28 -15 57 19 41 48 -12 24 -30 27
-48 9z"/>
<path d="M2071 891 c-20 -13 -6 -61 19 -61 26 0 46 36 29 56 -13 16 -28 18
-48 5z"/>
<path d="M2513 887 c-30 -13 -36 -35 -18 -63 17 -26 27 -29 54 -14 25 13 33
37 21 60 -13 24 -30 29 -57 17z"/>
<path d="M958 879 c-41 -24 -5 -101 47 -101 53 0 68 58 24 95 -24 19 -46 21
-71 6z"/>
<path d="M1258 870 c-22 -18 -22 -20 -8 -47 20 -35 43 -40 69 -14 24 24 18 55
-14 69 -19 9 -28 7 -47 -8z"/>
<path d="M1890 870 c-16 -16 -18 -24 -10 -40 11 -21 19 -24 44 -14 20 8 21 48
2 63 -12 10 -19 8 -36 -9z"/>
<path d="M2306 784 c-30 -30 -13 -74 29 -74 44 0 63 60 26 80 -27 14 -37 13
-55 -6z"/>
<path d="M1452 778 c-36 -36 7 -91 54 -69 42 19 26 81 -21 81 -12 0 -26 -5
-33 -12z"/>
<path d="M2907 766 c-37 -31 -49 -60 -37 -90 5 -14 14 -27 20 -27 5 -1 16 -2
23 -3 20 -3 65 22 81 46 21 30 20 74 -1 83 -36 15 -61 12 -86 -9z"/>
<path d="M826 754 c-25 -25 -19 -63 15 -95 53 -49 123 -32 113 29 -6 34 -57
82 -88 82 -14 0 -32 -7 -40 -16z"/>
<path d="M2604 748 c-57 -31 -59 -93 -2 -103 55 -10 102 63 62 96 -21 17 -36
19 -60 7z"/>
<path d="M1148 724 c-31 -31 13 -94 67 -94 20 0 45 28 45 51 0 48 -77 78 -112
43z"/>
<path d="M1680 732 c-23 -7 -38 -31 -33 -51 5 -21 40 -39 65 -33 19 4 34 44
23 61 -10 17 -38 29 -55 23z"/>
<path d="M2098 726 c-34 -26 -16 -76 27 -76 44 0 63 60 26 80 -25 13 -32 12
-53 -4z"/>
<path d="M1879 701 c-21 -16 -22 -22 -11 -45 9 -20 19 -26 42 -26 23 0 33 6
42 26 11 23 10 29 -11 45 -13 11 -27 19 -31 19 -4 0 -18 -8 -31 -19z"/>
<path d="M1390 627 c-33 -17 -37 -50 -9 -76 37 -34 90 -26 102 14 7 23 -8 46
-40 63 -26 14 -22 15 -53 -1z"/>
<path d="M2351 614 c-25 -31 -25 -35 -7 -59 28 -39 116 -9 116 40 0 51 -74 64
-109 19z"/>
<path d="M2682 600 c-73 -44 -58 -124 20 -114 38 4 88 50 88 80 0 46 -58 64
-108 34z"/>
<path d="M1064 597 c-34 -18 -38 -36 -19 -80 9 -22 56 -47 88 -47 52 0 70 62
29 102 -25 25 -74 38 -98 25z"/>
<path d="M2140 568 c-14 -4 -31 -17 -38 -29 -32 -51 60 -97 101 -51 42 46 -2
101 -63 80z"/>
<path d="M1617 552 c-24 -26 -21 -47 8 -71 29 -22 73 -20 93 6 17 24 15 39
-10 63 -27 25 -70 26 -91 2z"/>
<path d="M1872 534 c-25 -17 -29 -56 -8 -73 25 -21 77 -16 97 8 42 51 -32 105
-89 65z"/>
<path d="M2434 480 c-26 -10 -54 -48 -54 -72 0 -27 44 -51 79 -43 42 9 81 42
81 69 0 45 -52 68 -106 46z"/>
<path d="M1302 468 c-23 -30 -22 -55 2 -81 14 -15 32 -28 41 -28 8 -1 21 -2
28 -3 24 -4 66 16 70 32 5 27 -15 62 -44 78 -34 17 -83 18 -97 2z"/>
<path d="M1590 396 c-40 -20 -47 -42 -24 -73 36 -48 111 -52 140 -7 35 52 -53
113 -116 80z"/>
<path d="M2160 403 c-49 -18 -65 -67 -32 -96 42 -39 142 -5 142 48 0 41 -59
67 -110 48z"/>
<path d="M1852 360 c-37 -35 -22 -77 36 -95 30 -9 90 12 102 36 32 59 -84 109
-138 59z"/>
</g>
</svg>
