<svg id="visual" viewBox="0 0 900 65" width="900" height="65" xmlns="http://www.w3.org/2000/svg" xmlns:xlink="http://www.w3.org/1999/xlink" version="1.1"><rect x="0" y="0" width="900" height="65" fill="#fff"></rect><path d="M0 51L12.5 51C25 51 50 51 75 51C100 51 125 51 150 51C175 51 200 51 225 51C250 51 275 51 300 51C325 51 350 51 375 51C400 51 425 51 450 51C475 51 500 51 525 51C550 51 575 51 600 51C625 51 650 51 675 51C700 51 725 51 750 51C775 51 800 51 825 51C850 51 875 51 887.5 51L900 51L900 66L887.5 66C875 66 850 66 825 66C800 66 775 66 750 66C725 66 700 66 675 66C650 66 625 66 600 66C575 66 550 66 525 66C500 66 475 66 450 66C425 66 400 66 375 66C350 66 325 66 300 66C275 66 250 66 225 66C200 66 175 66 150 66C125 66 100 66 75 66C50 66 25 66 12.5 66L0 66Z" fill="#cfe2ff" stroke-linecap="round" stroke-linejoin="miter"></path></svg>