<svg id="visual" viewBox="0 0 900 65" width="900" height="65" xmlns="http://www.w3.org/2000/svg" xmlns:xlink="http://www.w3.org/1999/xlink" version="1.1"><rect x="0" y="0" width="900" height="65" fill="#fff"></rect><path d="M0 56L13.7 54.3C27.3 52.7 54.7 49.3 82 48.7C109.3 48 136.7 50 163.8 50.3C191 50.7 218 49.3 245.2 48.3C272.3 47.3 299.7 46.7 327 47.2C354.3 47.7 381.7 49.3 409 50C436.3 50.7 463.7 50.3 491 49.5C518.3 48.7 545.7 47.3 573 47.8C600.3 48.3 627.7 50.7 654.8 50.8C682 51 709 49 736.2 48.3C763.3 47.7 790.7 48.3 818 49.8C845.3 51.3 872.7 53.7 886.3 54.8L900 56L900 66L886.3 66C872.7 66 845.3 66 818 66C790.7 66 763.3 66 736.2 66C709 66 682 66 654.8 66C627.7 66 600.3 66 573 66C545.7 66 518.3 66 491 66C463.7 66 436.3 66 409 66C381.7 66 354.3 66 327 66C299.7 66 272.3 66 245.2 66C218 66 191 66 163.8 66C136.7 66 109.3 66 82 66C54.7 66 27.3 66 13.7 66L0 66Z" fill="#d5e5fe" stroke-linecap="round" stroke-linejoin="miter"></path></svg>